<?xml version="1.0" encoding="UTF-8"?>
<svg version="1.1" xmlns="http://www.w3.org/2000/svg" width="1024" height="1024">
<path d="M0 0 C11.70813652 4.68916349 23.42149168 9.31827157 35.38247681 13.32919312 C36.28764038 13.63590942 37.19280396 13.94262573 38.12539673 14.25863647 C48.35835187 17.58896832 58.19714886 18.88656586 68.94497681 18.82919312 C70.04180786 18.82427856 71.13863892 18.81936401 72.26870728 18.81430054 C80.76506395 18.69206433 88.49072697 17.85667124 96.69497681 15.51669312 C97.79196899 15.2111853 98.88896118 14.90567749 100.01919556 14.59091187 C110.5520907 11.34729914 120.59532095 6.82786156 130.71450806 2.49716187 C174.19970591 -16.10792841 220.94676589 -32.11995696 268.69497681 -20.48330688 C269.52029907 -20.28994751 270.34562134 -20.09658813 271.19595337 -19.89736938 C305.78103552 -11.58155 334.59405106 8.35556597 353.69497681 38.51669312 C354.06477661 39.09451538 354.43457642 39.67233765 354.81558228 40.26766968 C366.34173483 58.57950077 372.83249322 79.34872595 376.69497681 100.51669312 C376.92829712 101.77223999 377.16161743 103.02778687 377.40200806 104.32138062 C387.82782702 172.87676574 367.55652445 240.24308413 341.6222229 302.85165405 C317.93341857 360.09897286 309.13897724 413.12338276 306.69497681 474.89169312 C305.28903478 510.41123759 303.75714579 545.74259548 295.69497681 580.51669312 C295.46471802 581.51813354 295.23445923 582.51957397 294.9972229 583.55136108 C285.84712991 622.6290251 270.24171255 661.46840825 245.69497681 693.51669312 C245.00790649 694.41516968 244.32083618 695.31364624 243.61294556 696.23934937 C230.05706237 713.53847445 214.3684284 730.68405596 191.69497681 734.51669312 C182.75886585 735.43283222 175.0976877 733.42521891 167.94497681 727.89169312 C156.88002777 717.47915852 154.81207816 702.56743391 154.32777405 688.12968445 C154.29555252 687.06114731 154.26333099 685.99261017 154.23013306 684.89169312 C154.1529782 682.56771331 154.0756608 680.2437389 153.99819946 677.91976929 C153.9591449 676.71049774 153.92009033 675.5012262 153.87985229 674.25531006 C151.32078979 580.21335693 151.32078979 580.21335693 122.69497681 491.51669312 C122.15099243 490.41970093 121.60700806 489.32270874 121.04653931 488.19247437 C113.19163664 472.89140832 101.66796568 458.65356612 85.31997681 452.14169312 C73.68734456 448.62070481 60.57784205 448.96044895 49.48403931 453.97372437 C45.10472061 456.3964567 41.38698851 459.14661935 37.69497681 462.51669312 C36.96923462 463.15091187 36.24349243 463.78513062 35.49575806 464.43856812 C-10.86161414 507.47892066 -11.77577091 597.89512999 -13.99278259 656.49913025 C-14.20445432 662.2415746 -14.39907259 667.98411536 -14.57138062 673.72787476 C-15.8245611 713.66163024 -15.8245611 713.66163024 -27.30502319 726.51669312 C-33.5637018 731.91610972 -39.69180714 734.71790786 -47.97689819 734.35653687 C-69.86227043 732.50389025 -85.31851673 718.58823904 -99.08187866 702.43075562 C-107.03554129 692.70835744 -114.01179944 682.37754103 -120.30502319 671.51669312 C-121.0144104 670.29321167 -121.0144104 670.29321167 -121.73812866 669.04501343 C-156.95840115 607.68174012 -164.96232683 540.29076023 -167.99407959 470.87609863 C-170.59098328 411.49810259 -178.57830665 360.4431997 -202.32455444 305.46200562 C-221.60410274 260.69626394 -236.47611556 216.22999126 -241.30502319 167.51669312 C-241.37704956 166.81077026 -241.44907593 166.10484741 -241.52328491 165.37753296 C-241.94259026 161.09438998 -242.17787905 156.81692475 -242.30502319 152.51669312 C-242.33225464 151.65769409 -242.35948608 150.79869507 -242.38754272 149.91366577 C-243.55798688 106.5336191 -236.82663168 57.6166199 -206.61752319 24.01669312 C-205.18132799 22.51544377 -203.74393776 21.01533621 -202.30502319 19.51669312 C-201.19574761 18.18760716 -200.09136728 16.85441636 -198.99252319 15.51669312 C-190.91354685 6.30480285 -180.90707865 -0.50266022 -170.30502319 -6.48330688 C-169.36271851 -7.01697876 -168.42041382 -7.55065063 -167.44955444 -8.10049438 C-113.05791466 -37.05935363 -53.4912284 -21.47282865 0 0 Z " fill="#FEFEFE" transform="translate(442.3050231933594,154.48330688476563)"/>
<path d="" fill="#E9E9EA" transform="translate(0,0)"/>
<path d="" fill="#E8EBEB" transform="translate(0,0)"/>
<path d="" fill="#ECEBED" transform="translate(0,0)"/>
<path d="" fill="#EFEEEE" transform="translate(0,0)"/>
<path d="" fill="#EFF0EF" transform="translate(0,0)"/>
<path d="" fill="#DEDBDF" transform="translate(0,0)"/>
<path d="" fill="#E1E0E2" transform="translate(0,0)"/>
<path d="" fill="#D5D8D3" transform="translate(0,0)"/>
<path d="" fill="#D5D3D1" transform="translate(0,0)"/>
<path d="" fill="#DADBDB" transform="translate(0,0)"/>
<path d="" fill="#D8D8D9" transform="translate(0,0)"/>
<path d="" fill="#DBD9DC" transform="translate(0,0)"/>
</svg>
